<svg width="24" height="24" viewBox="0 0 24 24" fill="none" xmlns="http://www.w3.org/2000/svg">
<path d="M21.4258 11.0949L4.42576 3.09492C4.25458 3.01437 4.06406 2.98404 3.87632 3.00743C3.68859 3.03083 3.51134 3.107 3.36516 3.22711C3.21899 3.34721 3.10988 3.50632 3.05051 3.68595C2.99114 3.86558 2.98395 4.05837 3.02976 4.24192L4.24176 9.09092L11.9998 11.9999L4.24176 14.9089L3.02976 19.7579C2.98309 19.9416 2.98968 20.1348 3.04877 20.3149C3.10787 20.495 3.21702 20.6545 3.36346 20.7748C3.5099 20.8951 3.68757 20.9713 3.8757 20.9943C4.06382 21.0173 4.25461 20.9863 4.42576 20.9049L21.4258 12.9049C21.5976 12.8242 21.7428 12.6962 21.8446 12.5359C21.9463 12.3757 22.0004 12.1898 22.0004 11.9999C22.0004 11.8101 21.9463 11.6242 21.8446 11.4639C21.7428 11.3037 21.5976 11.1757 21.4258 11.0949Z" fill="#34558B"/>
</svg>
