<svg width="32" height="32" viewBox="0 0 32 32" fill="none" xmlns="http://www.w3.org/2000/svg">
<path d="M16.0003 29.3334C14.1781 29.3334 12.4559 28.9832 10.8337 28.2827C9.21144 27.5823 7.79499 26.6267 6.58433 25.4161C5.37366 24.2054 4.4181 22.789 3.71766 21.1667C3.01721 19.5445 2.66699 17.8223 2.66699 16.0001C2.66699 14.1556 3.01721 12.4281 3.71766 10.8174C4.4181 9.20675 5.37366 7.79564 6.58433 6.58408C7.79499 5.37253 9.21144 4.41697 10.8337 3.71741C12.4559 3.01786 14.1781 2.66764 16.0003 2.66675C17.8448 2.66675 19.5728 3.01697 21.1843 3.71741C22.7959 4.41786 24.2065 5.37341 25.4163 6.58408C26.6261 7.79475 27.5817 9.20586 28.283 10.8174C28.9843 12.429 29.3345 14.1565 29.3337 16.0001C29.3337 17.8223 28.9834 19.5445 28.283 21.1667C27.5825 22.789 26.627 24.2059 25.4163 25.4174C24.2057 26.629 22.7945 27.5845 21.183 28.2841C19.5714 28.9836 17.8439 29.3334 16.0003 29.3334ZM16.0003 26.6001C16.5781 25.8001 17.0781 24.9667 17.5003 24.1001C17.9225 23.2334 18.267 22.3112 18.5337 21.3334H13.467C13.7337 22.3112 14.0781 23.2334 14.5003 24.1001C14.9225 24.9667 15.4225 25.8001 16.0003 26.6001ZM12.5337 26.0667C12.1337 25.3334 11.7839 24.5721 11.4843 23.7827C11.1848 22.9934 10.9345 22.177 10.7337 21.3334H6.80033C7.44477 22.4445 8.25055 23.4112 9.21766 24.2334C10.1848 25.0556 11.2901 25.6667 12.5337 26.0667ZM19.467 26.0667C20.7114 25.6667 21.8172 25.0556 22.7843 24.2334C23.7514 23.4112 24.5568 22.4445 25.2003 21.3334H21.267C21.067 22.1779 20.8172 22.9947 20.5177 23.7841C20.2181 24.5734 19.8679 25.3343 19.467 26.0667ZM5.66699 18.6667H10.2003C10.1337 18.2223 10.0839 17.7836 10.051 17.3507C10.0181 16.9179 10.0012 16.4676 10.0003 16.0001C9.99944 15.5325 10.0163 15.0827 10.051 14.6507C10.0857 14.2187 10.1354 13.7796 10.2003 13.3334H5.66699C5.55588 13.7779 5.47277 14.217 5.41766 14.6507C5.36255 15.0845 5.33455 15.5343 5.33366 16.0001C5.33277 16.4659 5.36077 16.9161 5.41766 17.3507C5.47455 17.7854 5.55766 18.2241 5.66699 18.6667ZM12.867 18.6667H19.1337C19.2003 18.2223 19.2505 17.7836 19.2843 17.3507C19.3181 16.9179 19.3345 16.4676 19.3337 16.0001C19.3328 15.5325 19.3159 15.0827 19.283 14.6507C19.2501 14.2187 19.2003 13.7796 19.1337 13.3334H12.867C12.8003 13.7779 12.7505 14.217 12.7177 14.6507C12.6848 15.0845 12.6679 15.5343 12.667 16.0001C12.6661 16.4659 12.683 16.9161 12.7177 17.3507C12.7523 17.7854 12.8021 18.2241 12.867 18.6667ZM21.8003 18.6667H26.3337C26.4448 18.2223 26.5283 17.7836 26.5843 17.3507C26.6403 16.9179 26.6679 16.4676 26.667 16.0001C26.6661 15.5325 26.6385 15.0827 26.5843 14.6507C26.5301 14.2187 26.4465 13.7796 26.3337 13.3334H21.8003C21.867 13.7779 21.9172 14.217 21.951 14.6507C21.9848 15.0845 22.0012 15.5343 22.0003 16.0001C21.9994 16.4659 21.9825 16.9161 21.9497 17.3507C21.9168 17.7854 21.867 18.2241 21.8003 18.6667ZM21.267 10.6667H25.2003C24.5559 9.55564 23.7505 8.58897 22.7843 7.76675C21.8181 6.94453 20.7123 6.33341 19.467 5.93341C19.867 6.66675 20.2172 7.42808 20.5177 8.21741C20.8181 9.00675 21.0679 9.82319 21.267 10.6667ZM13.467 10.6667H18.5337C18.267 9.68897 17.9225 8.76675 17.5003 7.90008C17.0781 7.03341 16.5781 6.20008 16.0003 5.40008C15.4225 6.20008 14.9225 7.03341 14.5003 7.90008C14.0781 8.76675 13.7337 9.68897 13.467 10.6667ZM6.80033 10.6667H10.7337C10.9337 9.8223 11.1839 9.00541 11.4843 8.21608C11.7848 7.42675 12.1345 6.66586 12.5337 5.93341C11.2892 6.33341 10.1834 6.94453 9.21633 7.76675C8.24921 8.58897 7.44388 9.55564 6.80033 10.6667Z" fill="#F8F8F8"/>
</svg>
