<svg width="34" height="34" viewBox="0 0 34 34" fill="none" xmlns="http://www.w3.org/2000/svg">
<path d="M1 16.9999C1 18.6831 1.288 20.299 1.81919 21.7998M1.81919 21.7998H15.3999M1.81919 21.7998C2.81205 24.608 4.65129 27.0393 7.08353 28.7586C9.51578 30.4779 12.4213 31.4007 15.3999 31.3998C12.9295 31.3998 10.8943 25.7998 10.6287 18.5999M18.6223 12.1999H32.203M32.203 12.1999C31.2101 9.3917 29.3709 6.96046 26.9386 5.24116C24.5064 3.52185 21.6008 2.59909 18.6223 2.59999C21.1822 2.59999 23.2766 8.61914 23.4142 16.1999M32.203 12.1999C32.6477 13.4623 32.9229 14.8047 32.9997 16.1999M1 6.27516C1 4.51997 1 3.63998 1.2992 2.95838C1.6192 2.23519 2.16639 1.65439 2.84799 1.3184C3.49118 1 4.31997 1 5.97596 1H7.39995C10.4175 1 11.9247 1 12.8623 1.99199C13.7999 2.98878 13.7999 4.58397 13.7999 7.78395V11.3983C13.7999 12.7919 13.7999 13.4895 13.3775 13.7295C12.9551 13.9695 12.4079 13.5823 11.3135 12.8079L11.1455 12.6911C10.3455 12.1247 9.94553 11.8431 9.49113 11.6975C9.03834 11.5519 8.55674 11.5519 7.59515 11.5519H5.97916C4.31997 11.5519 3.49118 11.5519 2.84799 11.2335C2.1549 10.886 1.6065 10.3053 1.2992 9.59353C1 8.91194 1 8.03354 1 6.27516ZM32.9997 25.475C32.9997 23.7182 32.9997 22.8398 32.7005 22.1582C32.3932 21.4464 31.8448 20.8657 31.1518 20.5182C30.5086 20.1998 29.6798 20.1998 28.0238 20.1998H26.5998C23.5822 20.1998 22.075 20.1998 21.1374 21.1918C20.1998 22.1886 20.1998 23.7838 20.1998 26.9838V30.5982C20.1998 31.9918 20.1998 32.6893 20.6222 32.9293C21.0446 33.1693 21.5918 32.7821 22.6862 32.0077L22.8542 31.891C23.6542 31.3246 24.0542 31.043 24.5086 30.8974C24.9614 30.7518 25.443 30.7518 26.4046 30.7518H28.0206C29.6798 30.7518 30.5086 30.7518 31.1518 30.4334C31.8334 30.0974 32.3821 29.5166 32.7005 28.7934C32.9997 28.1118 32.9997 27.2334 32.9997 25.475Z" stroke="#F8F8F8" stroke-width="1.5" stroke-linecap="round" stroke-linejoin="round"/>
</svg>
