<svg width="34" height="34" viewBox="0 0 34 34" fill="none" xmlns="http://www.w3.org/2000/svg">
<path d="M32.9252 22.9111C33.2879 22.0471 32.2515 21.3111 31.3821 21.6951C29.6445 22.4579 27.7669 22.8502 25.8693 22.8471C18.4293 22.8471 12.3991 16.9378 12.3991 9.64719C12.3963 7.18559 13.0957 4.77426 14.4151 2.6961C14.92 1.89966 14.3137 0.797439 13.3893 1.0321C6.26221 2.85077 1 9.20097 1 16.7547C1 25.7271 8.4222 33 17.5795 33C24.5128 33 30.4506 28.8311 32.9252 22.9111Z" stroke="#242424" stroke-width="2"/>
<path d="M23.4189 1.18323C22.4767 0.5539 21.3531 1.67745 21.9807 2.61967L23.1007 4.29967C23.555 4.98084 23.7975 5.78131 23.7975 6.6001C23.7975 7.4189 23.555 8.21936 23.1007 8.90054L21.9807 10.5805C21.3531 11.5228 22.4785 12.6463 23.4207 12.017L25.0989 10.897C25.7801 10.4426 26.5806 10.2002 27.3993 10.2002C28.2181 10.2002 29.0186 10.4426 29.6998 10.897L31.3798 12.017C32.322 12.6463 33.4455 11.5228 32.8162 10.5805L31.6962 8.90054C31.2419 8.21936 30.9994 7.4189 30.9994 6.6001C30.9994 5.78131 31.2419 4.98084 31.6962 4.29967L32.8162 2.61967C33.4455 1.67745 32.322 0.5539 31.378 1.18323L29.6998 2.30323C29.0186 2.75757 28.2181 3.00003 27.3993 3.00003C26.5806 3.00003 25.7801 2.75757 25.0989 2.30323L23.4189 1.18323Z" stroke="#242424" stroke-width="2"/>
</svg>
