<svg width="32" height="32" viewBox="0 0 32 32" fill="none" xmlns="http://www.w3.org/2000/svg">
<path fill-rule="evenodd" clip-rule="evenodd" d="M16.0003 1.66675C16.2655 1.66675 16.5199 1.7721 16.7074 1.95964C16.895 2.14718 17.0003 2.40153 17.0003 2.66675V4.00008C17.0003 4.2653 16.895 4.51965 16.7074 4.70719C16.5199 4.89472 16.2655 5.00008 16.0003 5.00008C15.7351 5.00008 15.4808 4.89472 15.2932 4.70719C15.1057 4.51965 15.0003 4.2653 15.0003 4.00008V2.66675C15.0003 2.40153 15.1057 2.14718 15.2932 1.95964C15.4808 1.7721 15.7351 1.66675 16.0003 1.66675ZM5.86566 5.86541C6.05316 5.67815 6.30732 5.57296 6.57233 5.57296C6.83733 5.57296 7.09149 5.67815 7.27899 5.86541L7.80299 6.38808C7.98524 6.5766 8.08616 6.82915 8.084 7.09135C8.08185 7.35355 7.9768 7.60441 7.79148 7.78991C7.60615 7.97541 7.35539 8.08069 7.09319 8.08309C6.831 8.0855 6.57835 7.98482 6.38966 7.80275L5.86566 7.27875C5.67839 7.09125 5.57321 6.83708 5.57321 6.57208C5.57321 6.30708 5.67839 6.05292 5.86566 5.86541ZM26.135 5.86541C26.3223 6.05292 26.4274 6.30708 26.4274 6.57208C26.4274 6.83708 26.3223 7.09125 26.135 7.27875L25.611 7.80275C25.4214 7.97939 25.1707 8.07555 24.9116 8.07098C24.6526 8.06641 24.4054 7.96146 24.2222 7.77824C24.0389 7.59503 23.934 7.34785 23.9294 7.08878C23.9249 6.82971 24.021 6.57898 24.1977 6.38941L24.7217 5.86541C24.9092 5.67815 25.1633 5.57296 25.4283 5.57296C25.6933 5.57296 25.9475 5.67815 26.135 5.86541ZM16.0003 9.00008C14.1438 9.00008 12.3633 9.73758 11.0506 11.0503C9.73782 12.3631 9.00033 14.1436 9.00033 16.0001C9.00033 17.8566 9.73782 19.6371 11.0506 20.9498C12.3633 22.2626 14.1438 23.0001 16.0003 23.0001C17.8568 23.0001 19.6373 22.2626 20.9501 20.9498C22.2628 19.6371 23.0003 17.8566 23.0003 16.0001C23.0003 14.1436 22.2628 12.3631 20.9501 11.0503C19.6373 9.73758 17.8568 9.00008 16.0003 9.00008ZM7.00033 16.0001C7.00033 13.6131 7.94854 11.3239 9.63636 9.63612C11.3242 7.94829 13.6134 7.00008 16.0003 7.00008C18.3873 7.00008 20.6765 7.94829 22.3643 9.63612C24.0521 11.3239 25.0003 13.6131 25.0003 16.0001C25.0003 18.387 24.0521 20.6762 22.3643 22.364C20.6765 24.0519 18.3873 25.0001 16.0003 25.0001C13.6134 25.0001 11.3242 24.0519 9.63636 22.364C7.94854 20.6762 7.00033 18.387 7.00033 16.0001ZM1.66699 16.0001C1.66699 15.7349 1.77235 15.4805 1.95989 15.293C2.14742 15.1054 2.40178 15.0001 2.66699 15.0001H4.00033C4.26554 15.0001 4.5199 15.1054 4.70743 15.293C4.89497 15.4805 5.00033 15.7349 5.00033 16.0001C5.00033 16.2653 4.89497 16.5197 4.70743 16.7072C4.5199 16.8947 4.26554 17.0001 4.00033 17.0001H2.66699C2.40178 17.0001 2.14742 16.8947 1.95989 16.7072C1.77235 16.5197 1.66699 16.2653 1.66699 16.0001ZM27.0003 16.0001C27.0003 15.7349 27.1057 15.4805 27.2932 15.293C27.4808 15.1054 27.7351 15.0001 28.0003 15.0001H29.3337C29.5989 15.0001 29.8532 15.1054 30.0408 15.293C30.2283 15.4805 30.3337 15.7349 30.3337 16.0001C30.3337 16.2653 30.2283 16.5197 30.0408 16.7072C29.8532 16.8947 29.5989 17.0001 29.3337 17.0001H28.0003C27.7351 17.0001 27.4808 16.8947 27.2932 16.7072C27.1057 16.5197 27.0003 16.2653 27.0003 16.0001ZM24.1977 24.1974C24.3852 24.0101 24.6393 23.905 24.9043 23.905C25.1693 23.905 25.4235 24.0101 25.611 24.1974L26.135 24.7214C26.2332 24.813 26.312 24.9234 26.3667 25.046C26.4214 25.1687 26.4507 25.3011 26.4531 25.4354C26.4555 25.5697 26.4308 25.703 26.3805 25.8275C26.3302 25.9521 26.2553 26.0652 26.1604 26.1601C26.0654 26.2551 25.9523 26.3299 25.8278 26.3802C25.7033 26.4305 25.5699 26.4552 25.4356 26.4529C25.3014 26.4505 25.1689 26.4211 25.0463 26.3665C24.9236 26.3118 24.8132 26.233 24.7217 26.1347L24.1977 25.6107C24.0104 25.4232 23.9052 25.1691 23.9052 24.9041C23.9052 24.6391 24.0104 24.3849 24.1977 24.1974ZM7.80299 24.1974C7.99026 24.3849 8.09545 24.6391 8.09545 24.9041C8.09545 25.1691 7.99026 25.4232 7.80299 25.6107L7.27899 26.1347C7.18744 26.233 7.07704 26.3118 6.95438 26.3665C6.83171 26.4211 6.69929 26.4505 6.56502 26.4529C6.43075 26.4552 6.29738 26.4305 6.17286 26.3802C6.04834 26.3299 5.93523 26.2551 5.84027 26.1601C5.74532 26.0652 5.67046 25.9521 5.62016 25.8275C5.56987 25.703 5.54517 25.5697 5.54754 25.4354C5.54991 25.3011 5.57929 25.1687 5.63395 25.046C5.68861 24.9234 5.76741 24.813 5.86566 24.7214L6.38833 24.1974C6.48119 24.1045 6.59146 24.0308 6.71283 23.9805C6.83419 23.9302 6.96428 23.9043 7.09566 23.9043C7.22703 23.9043 7.35712 23.9302 7.47849 23.9805C7.59986 24.0308 7.71013 24.1045 7.80299 24.1974ZM16.0003 27.0001C16.2655 27.0001 16.5199 27.1054 16.7074 27.293C16.895 27.4805 17.0003 27.7349 17.0003 28.0001V29.3334C17.0003 29.5986 16.895 29.853 16.7074 30.0405C16.5199 30.2281 16.2655 30.3334 16.0003 30.3334C15.7351 30.3334 15.4808 30.2281 15.2932 30.0405C15.1057 29.853 15.0003 29.5986 15.0003 29.3334V28.0001C15.0003 27.7349 15.1057 27.4805 15.2932 27.293C15.4808 27.1054 15.7351 27.0001 16.0003 27.0001Z" fill="#F8F8F8"/>
</svg>
